<?xml version="1.0" encoding="utf-8"?>
<!-- Generator: Adobe Illustrator 17.1.0, SVG Export Plug-In . SVG Version: 6.00 Build 0)  -->
<!DOCTYPE svg PUBLIC "-//W3C//DTD SVG 1.1//EN" "http://www.w3.org/Graphics/SVG/1.1/DTD/svg11.dtd">
<svg version="1.1" id="Слой_1" xmlns="http://www.w3.org/2000/svg" xmlns:xlink="http://www.w3.org/1999/xlink" x="0px" y="0px"
	 viewBox="23.9 0 105.3 66" enable-background="new 23.9 0 105.3 66" xml:space="preserve">
<g>
	<path fill="#FFFFFF" d="M129.3,33c0,18-14.7,32.7-32.7,32.7c-7.5,0-14.4-2.6-20-6.8c-5.5,4.3-12.5,6.8-20,6.8
		c-18,0-32.7-14.7-32.7-32.7S38.6,0.3,56.6,0.3c7.5,0,14.4,2.5,20,6.8c5.5-4.3,12.5-6.8,20-6.8C114.6,0.3,129.3,15,129.3,33z
		 M96.6,3.2c-6.6,0-12.8,2.2-17.7,5.8c4.5,4.2,7.8,9.6,9.4,15.7h-3c-1.6-5.4-4.6-10.2-8.6-13.8c-4,3.7-7.1,8.4-8.6,13.8h-3
		c1.6-6.1,4.9-11.5,9.4-15.7c-4.9-3.7-11.1-5.8-17.7-5.8C40.2,3.2,26.9,16.6,26.9,33c0,16.4,13.3,29.8,29.8,29.8
		c6.6,0,12.8-2.2,17.7-5.8c-4.2-3.9-7.4-9-9.1-14.6h3.1c1.6,5,4.5,9.3,8.3,12.8c3.8-3.4,6.7-7.8,8.3-12.8H88
		C86.3,48,83.1,53,78.9,56.9c4.9,3.7,11.1,5.8,17.7,5.8c16.4,0,29.8-13.3,29.8-29.8C126.3,16.6,113,3.2,96.6,3.2z M44.6,25.9h-4.8
		l-3,8.9l-0.1-8.9h-4.4l-2.4,14.3h2.9l1.8-11l0.3,11H37l3.9-11l-1.8,11h3.1L44.6,25.9z M50.3,35c-0.3,0-0.5,0-0.7,0
		c-1.7,0-2.6,0.6-2.6,1.8c0,0.7,0.4,1.2,1.1,1.2C49.3,38,50.2,36.8,50.3,35z M52.5,40.2c-0.4,0-2.5,0-2.5,0L50,39
		c-0.8,1-1.8,1.4-3.2,1.4c-1.7,0-2.8-1.3-2.8-3.2c0-2.8,2-4.5,5.4-4.5c0.3,0,0.8,0,1.3,0.1c0.1-0.4,0.1-0.6,0.1-0.8
		c0-0.8-0.5-1.1-2-1.1c-1.5,0-2.7,0.4-3.2,0.5c0-0.2,0.4-2.6,0.4-2.6c1.5-0.5,2.5-0.6,3.7-0.6c2.6,0,4,1.2,4,3.4
		c0,0.6-0.1,1.3-0.2,2.3C53.2,35.7,52.6,39.4,52.5,40.2z M92.6,25.6c-4.1,0-6.9,3.6-6.9,8.7c0,3.8,2.1,6.2,5.4,6.2
		c0.8,0,1.6-0.1,2.7-0.4l0.5-3.3c-1,0.5-1.8,0.7-2.6,0.7c-1.8,0-2.9-1.3-2.9-3.5c0-3.2,1.6-5.4,3.9-5.4c0.9,0,1.6,0.2,2.7,0.8
		l0.5-3.1C95.5,26.1,94,25.6,92.6,25.6z M101.5,35c-0.3,0-0.5,0-0.7,0c-1.7,0-2.6,0.6-2.6,1.8c0,0.7,0.4,1.2,1.1,1.2
		C100.5,38,101.4,36.8,101.5,35z M103.7,40.2c-0.4,0-2.5,0-2.5,0l0.1-1.2c-0.8,1-1.8,1.4-3.2,1.4c-1.7,0-2.8-1.3-2.8-3.2
		c0-2.8,2-4.5,5.4-4.5c0.3,0,0.8,0,1.3,0.1c0.1-0.4,0.1-0.6,0.1-0.8c0-0.8-0.5-1.1-2-1.1c-1.5,0-2.7,0.4-3.2,0.5
		c0-0.2,0.4-2.6,0.4-2.6c1.5-0.5,2.5-0.6,3.7-0.6c2.6,0,4,1.2,4,3.4c0,0.6-0.1,1.3-0.2,2.3C104.3,35.7,103.8,39.4,103.7,40.2z
		 M67.6,37.5c-0.2,0.1-0.5,0.1-0.8,0.1c-0.7,0-1.1-0.3-1.1-0.9c0-0.4,0.5-3.1,0.9-5.3h1.6l0.4-2.8H67l0.4-1.8h-3.1
		c0,0-1.2,6.9-1.3,8c-0.2,1.2-0.4,2.6-0.4,3.1c0,1.7,0.9,2.6,2.4,2.6c0.7,0,1.4-0.1,2.2-0.4L67.6,37.5z M77,40
		c-1.1,0.3-2.1,0.5-3.1,0.5c-3.4,0-5.2-1.8-5.2-5.2c0-4,2.3-6.9,5.3-6.9c2.5,0,4.1,1.6,4.1,4.2c0,0.9-0.1,1.7-0.4,2.9h-6.1
		c-0.2,1.7,0.9,2.4,2.7,2.4c1.1,0,2.1-0.2,3.2-0.7L77,40z M75.3,33.1c0-0.2,0.3-2.1-1.4-2.1c-1,0-1.7,0.7-2,2.1H75.3z M54.9,32.3
		c0,1.5,0.7,2.5,2.3,3.3c1.2,0.6,1.4,0.8,1.4,1.3c0,0.7-0.5,1.1-1.8,1.1c-0.9,0-1.8-0.1-2.7-0.5c0,0-0.4,2.6-0.4,2.7
		c0.7,0.2,1.3,0.3,3.2,0.3c3.2,0,4.7-1.2,4.7-3.9c0-1.6-0.6-2.5-2.2-3.2C58.2,32.7,58,32.6,58,32c0-0.6,0.5-1,1.5-1
		c0.6,0,1.4,0.1,2.2,0.2l0.4-2.7c-0.8-0.1-2-0.2-2.7-0.2C56.1,28.3,54.9,30.1,54.9,32.3z M121,40.2h-2.9l0.1-1.1
		c-0.8,0.9-1.7,1.3-2.8,1.3c-2.2,0-3.7-1.9-3.7-4.8c0-3.9,2.3-7.2,5-7.2c1.2,0,2.1,0.5,2.9,1.6l0.7-4.1h3L121,40.2z M116.5,37.6
		c1.4,0,2.4-1.6,2.4-3.9c0-1.5-0.6-2.3-1.6-2.3c-1.4,0-2.4,1.6-2.4,3.9C114.9,36.8,115.4,37.6,116.5,37.6z M107,28.6
		c-0.4,3.6-1.1,7.3-1.6,10.9l-0.1,0.8h3.1c1.1-7.1,1.4-8.5,3.1-8.4c0.3-1.5,0.8-2.7,1.2-3.4c-1.3-0.3-2,0.5-2.9,1.8
		c0.1-0.6,0.2-1.2,0.2-1.8H107z M80.2,28.6c-0.4,3.6-1.1,7.3-1.6,10.9l-0.1,0.8h3.1c1.1-7.1,1.4-8.5,3.1-8.4
		c0.3-1.5,0.8-2.7,1.2-3.4c-1.3-0.3-2,0.5-2.9,1.8c0.1-0.6,0.2-1.2,0.2-1.8H80.2z M123.3,40.9c0.6,0,1.1-0.5,1.1-1.1
		c0-0.6-0.5-1.1-1.1-1.1c-0.6,0-1.1,0.5-1.1,1.1C122.3,40.4,122.7,40.9,123.3,40.9z M122.5,39.8c0-0.4,0.4-0.8,0.8-0.8
		c0.5,0,0.8,0.4,0.8,0.8c0,0.4-0.4,0.8-0.8,0.8C122.9,40.6,122.5,40.2,122.5,39.8z M123.2,40.3H123v-0.9h0.4c0.1,0,0.2,0,0.2,0
		c0.1,0,0.1,0.1,0.1,0.2c0,0.1-0.1,0.2-0.2,0.2l0.2,0.4h-0.2l-0.1-0.4h-0.2V40.3z M123.2,39.7h0.1c0,0,0.1,0,0.1,0
		c0,0,0.1-0.1,0.1-0.1c0,0,0-0.1-0.1-0.1c0,0-0.1,0-0.1,0h-0.1V39.7z M124.9,51.2c0-0.6,0.5-1.1,1.1-1.1c0.6,0,1.1,0.5,1.1,1.1
		c0,0.6-0.5,1.1-1.1,1.1C125.4,52.3,124.9,51.8,124.9,51.2z M126,52c0.4,0,0.8-0.4,0.8-0.8c0-0.4-0.4-0.8-0.8-0.8
		c-0.4,0-0.8,0.4-0.8,0.8C125.2,51.7,125.5,52,126,52z M125.8,51.3h0.2l0.1,0.4h0.2l-0.2-0.4c0.1,0,0.2-0.1,0.2-0.2
		c0-0.1-0.1-0.2-0.1-0.2c-0.1,0-0.2,0-0.2,0h-0.4v0.9h0.2V51.3z M125.8,50.9h0.1c0,0,0.1,0,0.1,0c0,0,0.1,0.1,0.1,0.1
		c0,0,0,0.1-0.1,0.1c0,0-0.1,0-0.1,0h-0.1V50.9z"/>
</g>
</svg>
