<?xml version="1.0" encoding="utf-8"?>
<!-- Generator: Adobe Illustrator 17.1.0, SVG Export Plug-In . SVG Version: 6.00 Build 0)  -->
<!DOCTYPE svg PUBLIC "-//W3C//DTD SVG 1.1//EN" "http://www.w3.org/Graphics/SVG/1.1/DTD/svg11.dtd">
<svg version="1.1" id="Слой_1" xmlns="http://www.w3.org/2000/svg" xmlns:xlink="http://www.w3.org/1999/xlink" x="0px" y="0px"
	 viewBox="0 0 70 40" enable-background="new 0 0 70 40" xml:space="preserve">
<rect x="0" y="0" fill="#FFFFFF" stroke="#F8F7F7" stroke-width="0.25" stroke-miterlimit="10" width="70" height="40"/>
<g id="SqBd7A.tif">
	<g>
		<path fill="#006A72" d="M37.4,31.1c-0.1,0-0.1,0-0.2,0c0,0-0.1,0-0.1,0c0,0-0.1,0-0.1,0c0,0-0.1,0-0.1,0l0,0
			c-0.5,0.1-1,0.3-1.4,0.5c0,0-0.1,0-0.1,0c-0.1,0-0.1,0-0.1,0c0,0-0.1,0-0.1,0c-0.1,0-0.1,0-0.1,0c-0.1,0-0.1,0-0.2,0
			c-0.4,0.1-0.7,0.2-1.1,0.3c-0.1,0-0.1,0-0.2,0.1c-1.6,0.4-3.2,0.9-4.7,1.5c0,0-0.1,0-0.1,0c0,0-0.1,0-0.1,0c-0.1,0-0.1,0-0.2,0.1
			c0,0,0,0-0.1,0c0,0-0.1,0-0.1,0c-0.2,0-0.4,0.1-0.6,0.2c-0.1,0-0.1,0-0.2,0c0,0-0.1,0-0.1,0c0,0-0.1,0-0.1,0c0,0-0.1,0-0.1,0l0,0
			l0,0c-0.2,0-0.3,0.1-0.4,0.1c0,0-0.1,0-0.1,0c0,0-0.1,0-0.1,0c0,0-0.1,0-0.1,0c-0.1,0-0.1,0-0.2,0.1c-0.1,0-0.1,0-0.2,0
			c0,0-0.1,0-0.1,0l0,0c-0.9,0.3-1.9,0.6-2.8,0.9c-0.3,0.1-0.4,0-0.4-0.2c-1-2.8-2-5.6-3.1-8.4c-0.1-0.3-0.1-0.4,0.3-0.4
			c1.3,0,2.7,0,4,0c0.3,0,0.4-0.1,0.4-0.4c0-1,0-2,0-3c0-0.3,0.1-0.3,0.3-0.3c0.6,0,1.1,0,1.7-0.1c1.3-0.1,2.6-0.4,3.7-1.1
			c1.3-0.9,1.8-2.1,1.7-3.6c-0.1-1.5-1-2.4-2.3-3c-0.9-0.4-1.9-0.6-3-0.7c-2.2-0.1-4.4,0-6.6-0.1c-0.3,0-0.3,0.2-0.3,0.4
			c0,3.8,0,7.7,0,11.5c0,0.1,0,0.2-0.1,0.3c-0.1-0.1-0.1-0.2-0.1-0.3c-0.6-1.7-1.2-3.3-1.8-5c-0.6-1.7-1.3-3.4-1.9-5.1
			c0,0,0-0.1,0-0.1c0,0,0-0.1,0-0.1c0-0.2-0.1-0.4-0.2-0.5c0-0.2-0.1-0.3-0.2-0.5c0,0,0-0.1,0-0.1c0,0,0-0.1,0-0.1l0,0l0,0
			c0-0.1,0-0.1-0.1-0.2c0-0.1,0-0.1,0-0.2c0,0,0,0,0-0.1c0-0.1,0-0.2-0.1-0.3c0,0,0-0.1,0-0.1c0,0,0-0.1,0-0.1c0,0,0-0.1,0-0.1
			c0-0.2-0.1-0.4-0.2-0.5c0,0,0-0.1,0-0.1c0,0,0-0.1,0-0.1c0,0,0,0,0-0.1c0-0.1,0-0.2-0.1-0.2c0-0.1,0-0.1-0.1-0.2
			c0-0.1,0-0.1,0-0.2c0,0,0-0.1,0-0.1c0,0,0-0.1,0-0.1c0,0,0,0,0-0.1c0-0.1,0-0.2-0.1-0.2c0-0.2-0.1-0.4-0.2-0.6
			c0-0.1,0-0.2-0.1-0.3c0,0,0-0.1,0-0.1l0,0c0-0.1,0-0.2-0.1-0.2c0-0.1,0-0.1,0-0.2c0,0,0,0,0-0.1c0-0.1,0-0.2-0.1-0.2
			c-0.2-0.6-0.4-1.2-0.7-1.8c0-0.1-0.1-0.2-0.1-0.3c0,0,0-0.1,0-0.1l0,0c0-0.2-0.1-0.3-0.2-0.5c0-0.1,0-0.2-0.1-0.3
			c0.1-0.2,0.3-0.1,0.4-0.1c0.4-0.1,0.8,0,1.1-0.1c0.2,0,0.5,0,0.7,0c0.2,0,0.4,0,0.6,0c0,0,0,0,0,0c0.2,0,0.4,0,0.6,0
			c0.1,0,0.2,0,0.2,0c0.2,0,0.3,0,0.5-0.1c0.3,0,0.6,0,0.9,0c0.3,0,0.5,0,0.8,0c0.2,0,0.4,0,0.6,0c0.2,0,0.4,0,0.6,0
			c0.2,0,0.4,0,0.7,0c0.2,0,0.4,0,0.6-0.1c0,0,0.1,0,0.1,0c0.1,0,0.2,0,0.3,0c0.1,0,0.2,0,0.3,0c0.2,0,0.4,0,0.6,0l0,0
			c0.2,0,0.3,0,0.5,0c0.1,0,0.2,0,0.2,0c0.2,0,0.4,0,0.6-0.1c0.2,0,0.4,0,0.6,0c0.3,0,0.6,0,0.9-0.1c0.2,0,0.5,0,0.7,0
			c0.8,0,1.5,0,2.3-0.1c0.2,0,0.3,0,0.5,0c0.4,0,0.7,0,1.1-0.1c0.1,0,0.1,0,0.2,0c0.2,0,0.4,0,0.6,0c0,0,0.1,0,0.1,0
			c1,0,1.9-0.1,2.9-0.2c0.1,0,0.3,0,0.4,0c0.8,0,1.7-0.1,2.5-0.1c0.1,0,0.2,0,0.2,0c0.5,0,1.1,0,1.6-0.1c1-0.1,2.1-0.1,3.1-0.2
			c0,0,0.1,0,0.1,0c0.1,0,0.1,0,0.2,0c0.2,0,0.3,0,0.5,0c0.2,0,0.5,0,0.7,0l0,0l0,0c0.1,0,0.1,0,0.2,0c0.1,0,0.1,0,0.2,0
			c0.1,0,0.3,0,0.4,0C45.6,5,47.8,4.8,50,4.7c0.3,0,0.4,0,0.5,0.3c1.5,3.3,3,6.7,4.5,10c0.5,1.2,1.1,2.3,1.6,3.5c0,0,0,0,0,0.1
			c0.3,0.9,0.7,1.8,1.2,2.6c0,0.2,0.2,0.4,0.3,0.6c0,0,0,0,0,0.1l0,0c0,0.1,0.1,0.2,0.1,0.3c0,0,0,0,0,0.1c0,0.1,0,0.2,0.1,0.2
			c0,0,0,0.1,0.1,0.1c0,0,0,0.1,0,0.1c0,0.1,0.1,0.3,0.2,0.4c0.1,0.3,0.2,0.6,0.4,0.8c0.1,0.2,0.1,0.3-0.2,0.3
			c-0.3,0.1-0.5,0.2-0.8,0.3c-0.1,0-0.1,0-0.2,0c0,0-0.1,0-0.1,0c0,0-0.1,0-0.1,0c0,0-0.1,0-0.1,0c0,0-0.1,0-0.1,0c0,0-0.1,0-0.1,0
			c-0.2,0-0.4,0-0.5,0.2c-0.1-0.1-0.1-0.1-0.2,0l0,0c-0.3,0.1-0.7,0.2-1,0.3c0,0-0.1,0-0.1,0c0,0-0.1,0-0.1,0l0,0
			c-0.1,0-0.2,0-0.3,0.1c-0.1,0-0.1,0-0.2,0c0,0-0.1,0-0.1,0l0,0l0,0c-0.3,0.1-0.6,0.1-0.9,0.3l0,0l0,0c-0.2,0-0.3,0.1-0.5,0.1
			c-0.1,0-0.1,0-0.2,0c0,0-0.1,0-0.1,0c0,0-0.1,0-0.1,0c-0.1,0-0.2,0-0.3,0.1c-0.1,0-0.1,0-0.2,0.1c-0.2,0.1-0.4,0.1-0.6,0.2
			c-0.5,0.1-0.5,0.1-0.5-0.3c0-3.8,0-7.7,0-11.5c0-0.3-0.1-0.4-0.4-0.4c-1.3,0-2.7,0-4,0c-0.3,0-0.4,0.1-0.4,0.4c0,3.9,0,7.7,0,11.6
			c0,0.3,0.1,0.4,0.4,0.4c1.3,0,2.5,0,3.8,0c0.1,0,0.2,0,0.4,0.1c-0.1,0.1-0.2,0.1-0.3,0.2c-0.1,0-0.1,0-0.2,0c0,0-0.1,0-0.1,0l0,0
			c-0.8,0.2-1.5,0.4-2.2,0.7c-0.1,0-0.1,0-0.2,0c0,0-0.1,0-0.1,0c0,0-0.1,0-0.1,0c0,0-0.1,0-0.1,0c-0.1,0-0.3,0.1-0.4,0.1
			c0,0-0.1,0-0.1,0c0,0-0.1,0-0.1,0c0,0-0.1,0-0.1,0c0,0,0,0,0,0c-0.3,0-0.5,0.1-0.8,0.2c-0.1,0-0.1,0-0.2,0c0,0-0.1,0-0.1,0
			c0,0-0.1,0-0.1,0c0,0-0.1,0-0.1,0.1l0,0c-0.7,0.2-1.5,0.4-2.2,0.7c0,0-0.1,0-0.1,0c-0.2,0.1-0.5,0.1-0.7,0.2
			c-1.3,0.4-2.7,0.9-4,1.3c-0.1,0-0.1,0-0.2,0c0,0-0.1,0-0.1,0c-0.3,0-0.4,0.2-0.7,0.2c0,0,0,0-0.1,0c0,0-0.1,0-0.1,0
			c-0.1,0-0.3,0-0.4,0.1C37.6,31,37.5,31,37.4,31.1C37.5,31.1,37.4,31.1,37.4,31.1z M40.9,14c-1.9,0-3.7,0.3-5.3,1.3
			c-2.2,1.3-3.2,3.2-2.9,5.8c0.2,2.3,1.5,3.9,3.6,4.8c2.7,1.1,5.5,1.1,8.3,0.4c0.2-0.1,0.3-0.2,0.3-0.3c0-0.7,0-1.4,0-2.1
			c0-0.7,0-0.7-0.7-0.5c-1.4,0.4-2.7,0.6-4.1,0.3c-1.6-0.4-2.5-1.7-2.5-3.4c0.1-1.7,1.1-2.8,2.8-3.1c1.4-0.2,2.7,0.1,3.9,0.7
			c0.3,0.1,0.3,0.1,0.3-0.2c0-0.9,0-1.7,0-2.6c0-0.2-0.1-0.4-0.3-0.4C43.2,14.1,42.1,14,40.9,14z M49.2,13c0.1,0,0.2,0,0.4,0
			c1.3-0.1,2.4-1.1,2.4-2.3c0.1-1.5-0.7-2.6-2.1-2.9c-0.4-0.1-0.8-0.1-1.3,0C46.5,8,46,9.9,46.5,11.4C46.9,12.4,47.9,13,49.2,13z"/>
		<path fill="#006A72" d="M24.2,18.5c0-0.4,0-0.9,0-1.3c0-0.1,0-0.3,0.2-0.3c0.6,0,1.2,0,1.8,0.2c0.6,0.2,1,0.7,1,1.4
			c0,0.7-0.3,1.2-0.9,1.5c-0.6,0.3-1.2,0.2-1.8,0.3c-0.2,0-0.2-0.1-0.2-0.3C24.2,19.5,24.2,19,24.2,18.5z"/>
	</g>
</g>
<ellipse opacity="0.23" fill="#FFFFFF" stroke="#F8F7F7" stroke-width="0.25" stroke-miterlimit="10" cx="34.5" cy="10.8" rx="34.5" ry="9.9"/>
</svg>
