<?xml version="1.0" encoding="utf-8"?>
<!-- Generator: Adobe Illustrator 17.1.0, SVG Export Plug-In . SVG Version: 6.00 Build 0)  -->
<!DOCTYPE svg PUBLIC "-//W3C//DTD SVG 1.1//EN" "http://www.w3.org/Graphics/SVG/1.1/DTD/svg11.dtd">
<svg version="1.1" id="Слой_1" xmlns="http://www.w3.org/2000/svg" xmlns:xlink="http://www.w3.org/1999/xlink" x="0px" y="0px"
	 viewBox="30.9 6.6 89.7 50.7" enable-background="new 30.9 6.6 89.7 50.7" xml:space="preserve">
<g>
	<path fill="#FFFFFF" d="M107.5,40.3c-0.2,1-0.3,2-0.5,2.8c-0.8-0.3-1.8-0.7-3.3-0.7c-0.8,0-1.8,0.3-1.8,1.2s1.3,1.3,2.1,1.7
		c1.3,0.7,2.8,1.5,3,3.3c0.2,1.3-0.5,2.5-1.3,3.3c-2,1.8-6.1,2-9.1,0.8c0.2-1,0.3-2,0.5-3c1.2,0.5,2.6,1.2,4.3,1
		c0.8-0.2,1.6-0.5,1.6-1.3c0-1-1.8-1.5-2.8-2c-1-0.7-2.3-1.5-2.3-3c0-1,0.3-2,0.8-2.5C100.6,39.9,104.4,39.3,107.5,40.3z"/>
	<polygon fill="#FFFFFF" points="73.2,21.4 77.1,21.4 74.7,36.5 70.9,36.5 	"/>
	<path fill="#FFFFFF" d="M59.8,21.4h5.9c3.8,0,4.8,2.1,4.3,4.8c-0.3,2.1-2,3.6-4,4.1l3.8,6.1h-4.8l-2.8-5.9l-1,5.9h-3.8L59.8,21.4
		L59.8,21.4z M63.3,24.4l-0.7,3.8h1.2c1.2,0,2.1-0.8,2.3-1.8l0,0c0.2-1-0.7-1.8-1.6-1.8h-1.2V24.4z"/>
	<polygon fill="#FFFFFF" points="90.8,21.4 94.8,21.4 92.3,36.5 88.5,36.5 	"/>
	<polygon fill="#FFFFFF" points="97.6,21.4 106.2,21.4 105.7,24.8 101.1,24.8 100.6,27.4 105,27.4 104.5,30.5 100.1,30.5 99.8,33.2 
		104.4,33.2 103.7,36.5 95.3,36.5 	"/>
	<polygon fill="#FFFFFF" points="49.1,21.4 57.5,21.4 57,24.8 52.4,24.8 51.9,27.4 56.4,27.4 55.9,30.5 51.4,30.5 51.1,33.2 
		55.7,33.2 55.2,36.5 46.6,36.5 	"/>
	<polygon fill="#FFFFFF" points="79.9,21.4 88.5,21.4 88,24.8 83.4,24.8 82.9,27.4 87.2,27.4 86.7,30.5 82.4,30.5 81.4,36.5 
		77.6,36.5 	"/>
	<path fill="#FFFFFF" d="M113.6,21.5h-5.1l-2.3,14.8h5.1c4.8,0,8.6-3.1,9.2-7.4C121,26.1,119.5,21.5,113.6,21.5z M116.4,28.9
		c-0.5,2.6-2.3,4.5-5,4.5c-0.3,0-0.7,0-1,0l1.3-8.6c0.3,0,0.5,0,0.8,0C115.6,24.8,116.7,26.9,116.4,28.9z"/>
	<path fill="#FFFFFF" d="M30.9,19.5H38l0.8,10.9c4.8-8.2,9.6-16,14.4-23.8h2.3c-5.1,9.9-10.2,19.8-15.2,30h-5.3l-1.3-12
		c0-3.1-0.7-4.3-2.8-4.6V19.5L30.9,19.5z"/>
	<polygon fill="#FFFFFF" points="33.6,13.2 39.7,15.8 40.2,22.6 40.7,22.6 46.3,13.2 46.3,12.9 33.6,12.9 	"/>
	<path fill="#FFFFFF" d="M63,44.9c-1,0-2,0.5-2.6,1.2l0.8-5.9h-2.5l-1.8,13.2h2.5l0.2-1c0.5,0.7,1.2,1.2,2.1,1.2c2,0,4-2,4.3-4.3
		S64.9,44.9,63,44.9z M61.3,50.8c-1,0-1.5-0.8-1.5-1.8c0.2-1,1-1.8,2-1.8s1.5,0.8,1.5,1.8C63.1,50,62.3,50.8,61.3,50.8z"/>
	<polygon fill="#FFFFFF" points="66.1,45 69.1,45 70.4,49.2 73,45 76,45 68.4,57.3 65.4,57.3 68.6,52.1 	"/>
	<polygon fill="#FFFFFF" points="90.8,53.1 93.2,40.1 96.6,40.1 94.5,53.1 	"/>
	<path fill="#FFFFFF" d="M87.9,39.9c-1.3,3-2.3,6.1-3.6,8.9l-0.3-1.7l0,0v0.3c-0.3-1-0.8-1.8-1.3-2.5l0,0c-0.2-0.2-0.2-0.3-0.3-0.3
		l-0.2-0.2c-0.8-1-2-1.8-3-2.5l3.1,11.4h3.8c1.8-4.5,3.8-8.7,5.6-13.2C90.3,39.9,89.2,39.9,87.9,39.9z"/>
	<path fill="#FFFFFF" d="M81.1,39.9h-5.9v0.3c3.5,0.7,7.6,3.5,8.7,7.1l-1.2-6.1C82.6,40.4,81.9,39.9,81.1,39.9z"/>
	<path fill="#FFFFFF" d="M119.7,53.3c-1.2,0-2.1,0-3.3,0c-0.2-0.7-0.3-1.5-0.5-2c-1.5,0-3,0-4.5,0l-0.8,2c-1.3,0-2.5,0-3.8,0l5-11.2
		c0.2-0.5,0.7-1.2,0.8-1.5c0.3-0.5,1.2-0.5,1.7-0.5h2.8L119.7,53.3z M114.3,43.7l-1.8,5h3L114.3,43.7z"/>
</g>
</svg>
