<?xml version="1.0" encoding="utf-8"?>
<!-- Generator: Adobe Illustrator 17.1.0, SVG Export Plug-In . SVG Version: 6.00 Build 0)  -->
<!DOCTYPE svg PUBLIC "-//W3C//DTD SVG 1.1//EN" "http://www.w3.org/Graphics/SVG/1.1/DTD/svg11.dtd">
<svg version="1.1" id="Слой_1" xmlns="http://www.w3.org/2000/svg" xmlns:xlink="http://www.w3.org/1999/xlink" x="0px" y="0px"
	 viewBox="0 0 70 40" enable-background="new 0 0 70 40" xml:space="preserve">
<rect x="0" y="0" fill="#FFFFFF" stroke="#F8F7F7" stroke-width="0.25" stroke-miterlimit="10" width="70" height="40"/>
<g>
	<g>
		<polygon fill="#233986" points="27.6,27.5 30.1,12.5 34.2,12.5 31.6,27.5 		"/>
		<path fill="#233986" d="M46.4,12.9c-0.8-0.3-2.1-0.6-3.7-0.6c-4,0-6.9,2-6.9,4.9c0,2.1,2,3.3,3.6,4.1c1.6,0.7,2.1,1.2,2.1,1.9
			c0,1-1.3,1.5-2.4,1.5c-1.6,0-2.5-0.2-3.8-0.8l-0.5-0.2l-0.6,3.3c1,0.4,2.7,0.8,4.5,0.8c4.3,0,7.1-2,7.1-5.1c0-1.7-1.1-3-3.4-4.1
			c-1.4-0.7-2.3-1.2-2.3-1.9c0-0.6,0.7-1.3,2.3-1.3c1.3,0,2.3,0.3,3.1,0.6l0.4,0.2L46.4,12.9"/>
		<path fill="#233986" d="M56.9,12.6h-3.2c-1,0-1.7,0.3-2.1,1.2l-6.1,13.7h4.3c0,0,0.7-1.8,0.9-2.2c0.5,0,4.6,0,5.2,0
			c0.1,0.5,0.5,2.2,0.5,2.2h3.8L56.9,12.6 M51.9,22.2c0.3-0.9,1.6-4.2,1.6-4.2c0,0,0.3-0.9,0.5-1.4l0.3,1.3c0,0,0.8,3.6,0.9,4.3
			L51.9,22.2L51.9,22.2z"/>
		<path fill="#233986" d="M24.1,12.6l-4,10.2l-0.4-2.1c-0.7-2.4-3.1-5-5.6-6.3l3.6,13.1l4.3,0l6.4-14.9H24.1"/>
		<path fill="#F59E19" d="M16.4,12.5H9.9l-0.1,0.3c5.1,1.2,8.5,4.2,9.9,7.8l-1.4-6.9C18,12.9,17.3,12.6,16.4,12.5"/>
	</g>
</g>
<ellipse opacity="0.23" fill="#FFFFFF" stroke="#F8F7F7" stroke-width="0.25" stroke-miterlimit="10" cx="36.2" cy="11.9" rx="32.8" ry="8.7"/>
</svg>
