<?xml version="1.0" encoding="utf-8"?>
<!-- Generator: Adobe Illustrator 17.1.0, SVG Export Plug-In . SVG Version: 6.00 Build 0)  -->
<!DOCTYPE svg PUBLIC "-//W3C//DTD SVG 1.1//EN" "http://www.w3.org/Graphics/SVG/1.1/DTD/svg11.dtd">
<svg version="1.1" id="Слой_1" xmlns="http://www.w3.org/2000/svg" xmlns:xlink="http://www.w3.org/1999/xlink" x="0px" y="0px"
	 viewBox="33.4 20.3 83.2 25.6" enable-background="new 33.4 20.3 83.2 25.6" xml:space="preserve">
<g>
	<g>
		<polygon fill="#FFFFFF" points="62.8,45.4 66.9,20.6 73.7,20.6 69.4,45.4 		"/>
		<path fill="#FFFFFF" d="M93.8,21.3c-1.3-0.5-3.5-1-6.1-1c-6.6,0-11.4,3.3-11.4,8.1c0,3.5,3.3,5.4,5.9,6.8c2.6,1.2,3.5,2,3.5,3.1
			c0,1.6-2.1,2.5-4,2.5c-2.6,0-4.1-0.3-6.3-1.3l-0.8-0.3l-1,5.4c1.7,0.7,4.5,1.3,7.4,1.3c7.1,0,11.7-3.3,11.7-8.4
			c0-2.8-1.8-5-5.6-6.8c-2.3-1.2-3.8-2-3.8-3.1c0-1,1.2-2.1,3.8-2.1c2.1,0,3.8,0.5,5.1,1l0.7,0.3L93.8,21.3"/>
		<path fill="#FFFFFF" d="M111.1,20.8h-5.3c-1.7,0-2.8,0.5-3.5,2L92.3,45.4h7.1c0,0,1.2-3,1.5-3.6c0.8,0,7.6,0,8.6,0
			c0.2,0.8,0.8,3.6,0.8,3.6h6.3L111.1,20.8 M102.9,36.6c0.5-1.5,2.6-6.9,2.6-6.9s0.5-1.5,0.8-2.3l0.5,2.1c0,0,1.3,5.9,1.5,7.1H102.9
			L102.9,36.6z"/>
		<path fill="#FFFFFF" d="M57,20.8l-6.6,16.8l-0.7-3.5c-1.2-4-5.1-8.3-9.2-10.4l5.9,21.6h7.1l10.6-24.6H57"/>
		<path fill="#FFFFFF" d="M44.3,20.6H33.6l-0.2,0.5c8.4,2,14,6.9,16.3,12.9l-2.3-11.4C47,21.3,45.8,20.8,44.3,20.6"/>
	</g>
</g>
</svg>
