<?xml version="1.0" encoding="utf-8"?><!DOCTYPE svg PUBLIC "-//W3C//DTD SVG 1.1//EN" "http://www.w3.org/Graphics/SVG/1.1/DTD/svg11.dtd"><svg version="1.1" baseProfile="full" xmlns="http://www.w3.org/2000/svg" xmlns:xlink="http://www.w3.org/1999/xlink" xmlns:ev="http://www.w3.org/2001/xml-events"   height="234px"   width="210px" ><defs><filter id="Filter_0">  <feOffset in="SourceAlpha" dx="0px" dy="-15px" />  <feGaussianBlur result="blurOut" stdDeviation="5.477" />  <feFlood flood-color="rgb( 15, 18, 12 )" result="floodOut" />  <feComposite operator="out" in="floodOut" in2="blurOut" result="compOut" />  <feComposite operator="in" in="compOut" in2="SourceAlpha" />  <feComponentTransfer><feFuncA type="linear" slope="0.75"/></feComponentTransfer>  <feBlend mode="screen" in2="SourceGraphic" /></filter><radialGradient id="PSgrad_0">  <stop offset="5%" stop-color="rgb(247,104,51)" stop-opacity="0.9" />  <stop offset="65%" stop-color="rgb(223,51,59)" stop-opacity="0.9" />  <stop offset="100%" stop-color="rgb(38,59,127)" stop-opacity="0.9" /></radialGradient></defs><g filter="url(#Filter_0)"><path opacity="0.549" fill="rgb( 131, 37, 61 )" d="M208.008,184.247 C208.008,184.247 105,232.525 105,232.525 C105,232.525 1.99199999999999,184.247 1.99199999999999,184.247 C1.99199999999999,184.247 1.99199999999999,48.753 1.99199999999999,48.753 C1.99199999999999,48.753 105,1.47500000000002 105,1.47500000000002 C105,1.47500000000002 208.008,48.753 208.008,48.753 C208.008,48.753 208.008,184.247 208.008,184.247 Z "/></g><path fill="url(#PSgrad_0)" d="M208.008,184.247 C208.008,184.247 105,232.525 105,232.525 C105,232.525 1.99199999999999,184.247 1.99199999999999,184.247 C1.99199999999999,184.247 1.99199999999999,48.753 1.99199999999999,48.753 C1.99199999999999,48.753 105,1.47500000000002 105,1.47500000000002 C105,1.47500000000002 208.008,48.753 208.008,48.753 C208.008,48.753 208.008,184.247 208.008,184.247 Z "/><path fill="rgb( 255, 255, 255 )" d="M105,233.68 C105,233.68 104.5,233.392 104.5,233.392 C104.5,233.392 0.99199999999999,184.957 0.99199999999999,184.957 C0.99199999999999,184.957 0.99199999999999,48.325 0.99199999999999,48.325 C0.99199999999999,48.325 1.49299999999999,48.0359999999999 1.49299999999999,48.0359999999999 C1.49299999999999,48.0359999999999 105,0.31999999999999 105,0.31999999999999 C105,0.31999999999999 209.008,48.254 209.008,48.254 C209.008,48.254 209.008,184.746 209.008,184.746 C209.008,184.746 208.507,185.035 208.507,185.035 C208.507,185.035 105,233.68 105,233.68 ZM2.99799999999999,183.803 C2.99799999999999,183.803 105,231.371 105,231.371 C105,231.371 207.002,183.594 207.002,183.594 C207.002,183.594 207.002,49.4059999999999 207.002,49.4059999999999 C207.002,49.4059999999999 105,2.63 105,2.63 C105,2.63 2.99799999999999,49.478 2.99799999999999,49.478 C2.99799999999999,49.478 2.99799999999999,183.803 2.99799999999999,183.803 Z "/></svg>