<?xml version="1.0" encoding="utf-8"?><!DOCTYPE svg PUBLIC "-//W3C//DTD SVG 1.1//EN" "http://www.w3.org/Graphics/SVG/1.1/DTD/svg11.dtd"><svg version="1.1" baseProfile="full" xmlns="http://www.w3.org/2000/svg" xmlns:xlink="http://www.w3.org/1999/xlink" xmlns:ev="http://www.w3.org/2001/xml-events"   height="45px"   width="45px" ><path fill="rgb( 255, 255, 255 )" d="M0,45 C0,45 0,0 0,0 C0,0 45,0 45,0 C45,0 45,45 45,45 C45,45 0,45 0,45 ZM43,2 C43,2 2,2 2,2 C2,2 2,43 2,43 C2,43 43,43 43,43 C43,43 43,2 43,2 ZM20.333,20.222 C19.597,20.222 19,19.65 19,18.944 C19,18.239 19.597,17.667 20.333,17.667 C20.333,17.667 23,17.667 23,17.667 C23.736,17.667 24.333,18.239 24.333,18.944 C24.333,18.9589999999999 24.325,18.97 24.325,18.984 C24.325,18.998 24.333,19.01 24.333,19.024 C24.333,19.024 24.333,30.444 24.333,30.444 C24.333,30.444 25.667,30.444 25.667,30.444 C26.403,30.444 27,31.0170000000001 27,31.722 C27,32.428 26.403,33 25.667,33 C25.667,33 20.333,33 20.333,33 C19.597,33 19,32.428 19,31.722 C19,31.0170000000001 19.597,30.444 20.333,30.444 C20.333,30.444 21.667,30.444 21.667,30.444 C21.667,30.444 21.667,20.222 21.667,20.222 C21.667,20.222 20.333,20.222 20.333,20.222 ZM23,15.111 C21.527,15.111 20.333,13.967 20.333,12.5549999999999 C20.333,11.144 21.527,10 23,10 C24.473,10 25.667,11.144 25.667,12.5549999999999 C25.667,13.967 24.473,15.111 23,15.111 Z "/></svg>