<?xml version="1.0" encoding="utf-8"?>
<!-- Generator: Adobe Illustrator 18.1.0, SVG Export Plug-In . SVG Version: 6.00 Build 0)  -->
<svg version="1.1" id="Слой_3" xmlns="http://www.w3.org/2000/svg" xmlns:xlink="http://www.w3.org/1999/xlink" x="0px" y="0px"
	 viewBox="0 0 109.3 134.2" enable-background="new 0 0 109.3 134.2" xml:space="preserve">
<g>
	<g>
		<g>
			<path fill="#FFFFFF" d="M109.3,109.9L65.2,46.3l-33.5,58.8L11,108.5L0,95.6V12.7L17,0v66.4l26.5-46.3L63.6,15l29.7,43.3V1l16,12
				V109.9z M1,95.2l10.4,12.2l19.6-3.2l34.1-59.8l43.2,62.2V13.5L94.3,3v58.6L63.1,16.1l-19,4.8L16,70.1V2L1,13.2V95.2z"/>
		</g>
	</g>
	<g>
		<g>
			<path fill="#FFFFFF" d="M93.4,2.2V1l-16,12v22.9c0.4,0.4,0.7,1.8,1,2.2V13.5L92.4,3"/>
		</g>
	</g>
	<g>
		<g>
			<polygon fill="#FFFFFF" points="33.7,39.3 32.7,39.3 32.7,13.1 16.9,1.3 17,0 33.7,12.6 			"/>
		</g>
	</g>
	<g>
		
			<rect x="36.8" y="8.7" transform="matrix(0.8706 0.4919 -0.4919 0.8706 35.2073 -10.3579)" fill="#FFFFFF" width="1" height="106.1"/>
	</g>
	<g>
		<g>
			<polygon fill="#FFFFFF" points="109.3,109.9 90.4,107.1 90.2,106.9 57.8,59.2 57.6,57.7 90.9,106.2 108.8,108.9 			"/>
		</g>
	</g>
</g>
<g>
	<path fill="#FFFFFF" d="M3.6,134.2H0v-8.1h3.2c0.6,0,1,0.1,1.4,0.2c0.4,0.1,0.7,0.3,0.9,0.5c0.4,0.4,0.5,0.9,0.5,1.4
		c0,0.6-0.2,1.1-0.6,1.4c-0.1,0.1-0.2,0.2-0.3,0.2c-0.1,0-0.2,0.1-0.3,0.1c0.5,0.1,0.9,0.3,1.2,0.7c0.3,0.3,0.4,0.8,0.4,1.3
		c0,0.6-0.2,1.1-0.6,1.5C5.5,134,4.7,134.2,3.6,134.2z M1.8,129.4h0.9c0.5,0,0.9-0.1,1.1-0.2c0.2-0.1,0.4-0.3,0.4-0.7
		c0-0.4-0.1-0.6-0.3-0.7s-0.6-0.2-1.1-0.2H1.8V129.4z M1.8,132.7h1.2c0.5,0,0.9-0.1,1.2-0.2c0.3-0.1,0.4-0.4,0.4-0.8
		c0-0.4-0.1-0.6-0.4-0.7c-0.3-0.1-0.7-0.2-1.3-0.2H1.8V132.7z"/>
	<path fill="#FFFFFF" d="M16.8,126.1v1.6h-4v1.7h3.6v1.5h-3.6v1.7h4.2v1.6h-6v-8.1H16.8z"/>
	<path fill="#FFFFFF" d="M23.3,127.7c-0.2,0.1-0.3,0.3-0.3,0.6c0,0.2,0.1,0.4,0.3,0.6c0.2,0.1,0.7,0.3,1.5,0.5
		c0.8,0.2,1.4,0.5,1.8,0.9c0.4,0.4,0.6,0.9,0.6,1.7c0,0.7-0.3,1.3-0.8,1.8c-0.5,0.5-1.3,0.7-2.2,0.7c-1.3,0-2.4-0.5-3.5-1.4l1.1-1.3
		c0.9,0.8,1.7,1.2,2.4,1.2c0.3,0,0.6-0.1,0.8-0.2c0.2-0.1,0.3-0.3,0.3-0.6c0-0.2-0.1-0.4-0.3-0.6s-0.6-0.3-1.2-0.4
		c-0.9-0.2-1.6-0.5-2.1-0.9c-0.4-0.4-0.7-0.9-0.7-1.7c0-0.8,0.3-1.4,0.8-1.8c0.6-0.4,1.2-0.6,2.1-0.6c0.5,0,1.1,0.1,1.6,0.3
		c0.5,0.2,1,0.4,1.4,0.8l-0.9,1.3c-0.7-0.5-1.4-0.8-2.2-0.8C23.7,127.5,23.5,127.6,23.3,127.7z"/>
	<path fill="#FFFFFF" d="M35.2,127.7v6.6h-1.8v-6.6h-2.3v-1.6h6.4v1.6H35.2z"/>
	<path fill="#FFFFFF" d="M50.2,130.8l1.4-4.7h1.9l1.4,4.7l1.6-4.7h2l-2.8,8.1h-1.3l-1.8-5.7l-1.8,5.7h-1.3l-2.8-8.1h2L50.2,130.8z"
		/>
	<path fill="#FFFFFF" d="M68.3,134.2l-0.8-1.8h-3.4l-0.8,1.8h-1.9l3.5-8.1h1.8l3.5,8.1H68.3z M65.8,128.5l-1,2.4h2L65.8,128.5z"/>
	<path fill="#FFFFFF" d="M74,134.2v-8.1h1.8v6.5h3.5v1.6H74z"/>
	<path fill="#FFFFFF" d="M83.6,134.2v-8.1h1.8v6.5h3.5v1.6H83.6z"/>
	<path fill="#FFFFFF" d="M98.9,126.1v1.6h-4v1.7h3.6v1.5h-3.6v1.7h4.2v1.6h-6v-8.1H98.9z"/>
	<path fill="#FFFFFF" d="M107,127.7v6.6h-1.8v-6.6h-2.3v-1.6h6.4v1.6H107z"/>
</g>
<g>
	<rect x="0" y="115.1" fill="#FFFFFF" width="109.4" height="1"/>
</g>
</svg>
