<?xml version="1.0" encoding="utf-8"?><!DOCTYPE svg PUBLIC "-//W3C//DTD SVG 1.1//EN" "http://www.w3.org/Graphics/SVG/1.1/DTD/svg11.dtd"><svg version="1.1" baseProfile="full" xmlns="http://www.w3.org/2000/svg" xmlns:xlink="http://www.w3.org/1999/xlink" xmlns:ev="http://www.w3.org/2001/xml-events"   height="72px"   width="72px" ><path fill="rgb( 255, 255, 255 )" d="M0,72 C0,72 0,0 0,0 C0,0 72,0 72,0 C72,0 72,72 72,72 C72,72 0,72 0,72 ZM70,2 C70,2 2,2 2,2 C2,2 2,70 2,70 C2,70 70,70 70,70 C70,70 70,2 70,2 ZM50,30 C50,30 22,30 22,30 C22,30 22,23 22,23 C22,23 50,23 50,23 C50,23 50,30 50,30 ZM50,41 C50,41 22,41 22,41 C22,41 22,34 22,34 C22,34 50,34 50,34 C50,34 50,41 50,41 ZM50,54 C50,54 22,54 22,54 C22,54 22,45 22,45 C22,45 50,45 50,45 C50,45 50,54 50,54 ZM48,47 C48,47 24,47 24,47 C24,47 24,52 24,52 C24,52 48,52 48,52 C48,52 48,47 48,47 Z "/></svg>