<?xml version="1.0" encoding="utf-8"?>
<!-- Generator: Adobe Illustrator 17.1.0, SVG Export Plug-In . SVG Version: 6.00 Build 0)  -->
<!DOCTYPE svg PUBLIC "-//W3C//DTD SVG 1.1//EN" "http://www.w3.org/Graphics/SVG/1.1/DTD/svg11.dtd">
<svg version="1.1" id="Слой_1" xmlns="http://www.w3.org/2000/svg" xmlns:xlink="http://www.w3.org/1999/xlink" x="0px" y="0px"
	 viewBox="25.1 0 99.9 66" enable-background="new 25.1 0 99.9 66" xml:space="preserve">
<g id="RY4t7b.tif">
	<g>
		<path fill="#FFFFFF" d="M108.4,46.9c-1.4,0.5-3,0.9-4.5,1.4c-18.6,5.8-37,11.6-55.6,17.5c-0.8,0.3-0.9,0.1-1.2-0.7
			c-2.1-5.9-4.3-11.7-6.5-17.7c-0.3-0.9-0.3-0.9,0.7-0.9c2.8,0,5.5,0,8.3,0c0.8,0,0.9-0.3,0.9-0.9c0-2,0-3.8,0-5.8
			c0-1.3-0.1-1.2,1.1-1.2c2.9,0,5.8-0.3,8.6-1.3c2.5-0.9,4.5-2.4,5.7-4.9c1.8-4.3,0-8.8-4.2-10.7c-3-1.3-6.2-1.6-9.4-1.7
			c-3.7,0-7.2,0-10.9,0c-0.7,0-0.8,0.3-0.8,0.8c0,8,0,16.2,0,24.2c0,0.3,0.1,0.5-0.1,0.9c-0.3-0.3-0.3-0.5-0.4-0.8
			c-5-13.2-10-26.6-14.9-39.9c-0.3-0.8-0.1-0.9,0.7-0.9c6.5-0.4,12.9-0.7,19.4-1.1c20-1.2,40-2.2,59.9-3.4c0.9,0,1.3,0.1,1.7,1.1
			c5.9,13.3,11.9,26.6,17.9,39.8c0.3,0.7,0.3,0.9-0.5,1.2c-4.9,1.4-9.7,3-14.6,4.6c-0.7,0.3-0.8,0.1-0.8-0.5c0-8.3,0-16.5,0-24.8
			c0-0.7-0.1-0.9-0.9-0.9c-2.8,0-5.7,0-8.4,0c-0.7,0-0.8,0.1-0.8,0.8c0,8.3,0,16.6,0,24.9c0,0.7,0.3,0.8,0.8,0.8c2.9,0,5.9,0,8.8,0
			C108.4,46.8,108.4,46.9,108.4,46.9z M86.2,19.9c-4.1,0-7.9,0.5-11.5,2.8c-4.6,2.8-6.7,6.9-6.3,12.3c0.4,5.1,3.2,8.6,7.8,10.5
			c5.8,2.4,11.9,2.4,17.9,0.8c0.4-0.1,0.5-0.3,0.5-0.8c0-1.4,0-2.9,0-4.5c0-1.6,0-1.6-1.6-1.1c-2.9,0.9-5.8,1.3-8.8,0.5
			c-3.6-0.9-5.7-3.8-5.3-7.5c0.3-3.7,2.6-6.1,6.3-6.5c2.8-0.3,5.3,0.3,7.8,1.4c0.9,0.4,0.9,0.4,0.9-0.7c0-1.7,0-3.6,0-5.3
			c0-0.7-0.3-0.8-0.8-1.1C90.9,20,88.6,19.9,86.2,19.9z M104,17.7c0.3,0,0.5,0,0.8,0c2.9-0.3,5.1-2.4,5.3-5c0.3-3.3-1.4-5.5-4.5-6.2
			c-0.9-0.1-1.8-0.3-2.6-0.1c-4.1,0.5-6.2,4.3-4.6,8C99,16.3,101.2,17.7,104,17.7z"/>
		<path fill="#FFFFFF" d="M50.3,29.5c0-0.9,0-2,0-2.9c0-0.4,0-0.5,0.5-0.5c1.3,0,2.5,0,3.7,0.4c1.3,0.5,2.1,1.4,2.1,2.9
			s-0.7,2.6-2,3.2s-2.6,0.5-4,0.5c-0.4,0-0.4-0.3-0.4-0.7C50.3,31.5,50.3,30.6,50.3,29.5z"/>
	</g>
</g>
</svg>
