<?xml version="1.0" encoding="utf-8"?>
<!-- Generated by IcoMoon.io -->
<!DOCTYPE svg PUBLIC "-//W3C//DTD SVG 1.1//EN" "http://www.w3.org/Graphics/SVG/1.1/DTD/svg11.dtd">
<svg version="1.1" xmlns="http://www.w3.org/2000/svg" xmlns:xlink="http://www.w3.org/1999/xlink" width="846" height="1024" viewBox="0 0 846 1024"><g id="icomoon-ignore">
</g>
<path fill="rgb(255, 255, 255)" d="M800.189 1024c0 0-754.465 0-754.465 0s-45.724 0-45.724 0c0 0 0-45.501 0-45.501s0-568.899 0-568.899c0 0 0-45.501 0-45.501s45.724 0 45.724 0c0 0 136.815 0 136.815 0s0-104.136 0-104.136c0-143.36 100.753-259.962 250.657-259.962 149.326 0 252.661 126.219 252.661 273.052 0 0 0 91.047 0 91.047s114.332 0 114.332 0c0 0 45.724 0 45.724 0s0 45.501 0 45.501c0 0 0 568.899 0 568.899s0 45.501 0 45.501c0 0-45.724 0-45.724 0zM640.134 250.301c0-108.544-91.937-204.8-205.735-204.8-115 0-205.646 106.184-205.646 214.461 0 0 0 104.136 0 104.136s411.381 0 411.381 0c0 0 0-113.798 0-113.798zM800.189 409.6c0 0-754.465 0-754.465 0s0 568.899 0 568.899c0 0 754.465 0 754.465 0s0-568.899 0-568.899zM422.957 546.148c37.888 0 68.608 30.542 68.608 68.252 0 25.199-36.775 46.97-57.166 58.813 0 0 0 168.737 0 168.737s-22.884 0-22.884 0c0 0 0-168.737 0-168.737-20.391-11.843-57.166-33.614-57.166-58.813 0-37.71 30.72-68.252 68.608-68.252z"></path>
</svg>
